<svg id="Layer_2" data-name="Layer 2" xmlns="http://www.w3.org/2000/svg" viewBox="0 0 428.15 407.4"><defs><style>.cls-1{isolation:isolate;}.cls-2{fill:#906300;}.cls-3{fill:#9b6a04;}.cls-4{fill:#996903;}.cls-5{fill:#9f6d06;}.cls-6{fill:#cb8b13;}.cls-7{fill:#9d6c05;}.cls-8{fill:#e49c18;}.cls-9{fill:#946602;}.cls-10{fill:#d59215;}.cls-11{fill:#c98a13;}.cls-12{fill:#926401;}.cls-13{fill:#e29b17;}.cls-14{fill:#966702;}.cls-15{fill:#de9817;}.cls-16{fill:#c18511;}.cls-17{fill:#0e1131;}</style></defs><title>MAH22</title><g class="cls-1"><polygon class="cls-2" points="325.66 303.73 322.12 302.05 322.37 219.12 325.92 220.8 325.66 303.73"/><polygon class="cls-3" points="358.49 284.62 361.64 286.77 325.66 303.73 330.47 297.82 358.49 284.62"/><polygon class="cls-2" points="326.02 186.44 322.48 184.76 322.72 103.61 326.27 105.29 326.02 186.44"/><polygon class="cls-4" points="330.47 297.82 325.66 303.73 325.92 220.8 330.72 217.18 330.47 297.82"/><polygon class="cls-5" points="265.06 186.57 261.51 184.89 322.48 184.76 326.02 186.44 265.06 186.57"/><polygon class="cls-6" points="358.96 130.9 362.13 128.32 361.64 286.77 358.49 284.62 358.96 130.9"/><polygon class="cls-7" points="261.45 331.54 264.61 333.46 228.61 354.18 233.43 347.67 261.45 331.54"/><polygon class="cls-4" points="330.8 190.82 326.02 186.44 326.27 105.29 331.04 112.97 330.8 190.82"/><polygon class="cls-8" points="331.04 112.97 326.27 105.29 362.13 128.32 358.96 130.9 331.04 112.97"/><polygon class="cls-9" points="330.72 217.18 325.92 220.8 264.95 220.93 261.8 217.32 330.72 217.18"/><polygon class="cls-6" points="261.8 217.32 264.95 220.93 264.61 333.46 261.45 331.54 261.8 217.32"/><polygon class="cls-10" points="261.88 190.96 265.06 186.57 326.02 186.44 330.8 190.82 261.88 190.96"/><polygon class="cls-2" points="228.61 354.18 225.07 352.5 226.03 37.77 229.58 39.44 228.61 354.18"/><polygon class="cls-11" points="143.49 346.88 146.76 344.02 145.56 374.48 142.64 368.65 143.49 346.88"/><polygon class="cls-2" points="229.58 39.44 226.03 37.77 212.34 31.19 215.88 32.87 229.58 39.44"/><polygon class="cls-6" points="262.27 27.7 265.44 24.78 265.06 186.57 261.88 190.96 262.27 27.7"/><polygon class="cls-4" points="233.43 347.67 228.61 354.18 229.58 39.44 234.38 37.3 233.43 347.67"/><polygon class="cls-12" points="234.38 37.3 229.58 39.44 215.88 32.87 216.71 28.83 234.38 37.3"/><polygon class="cls-2" points="145.56 374.48 142.02 372.8 0 305.12 3.54 306.8 145.56 374.48"/><polygon class="cls-13" points="217.77 6.49 216.96 1.68 265.44 24.78 262.27 27.7 217.77 6.49"/><polygon class="cls-13" points="33.29 294.01 36.46 291.1 146.76 344.02 143.49 346.88 33.29 294.01"/><polygon class="cls-12" points="142.64 368.65 145.56 374.48 3.54 306.8 8.35 304.66 142.64 368.65"/><polygon class="cls-14" points="4.88 104 1.34 102.32 213.42 0 216.96 1.68 4.88 104"/><polygon class="cls-2" points="3.54 306.8 0 305.12 1.34 102.32 4.88 104 3.54 306.8"/><polygon class="cls-3" points="216.71 28.83 215.88 32.87 36.99 119.19 33.83 117.07 216.71 28.83"/><polygon class="cls-6" points="33.83 117.07 36.99 119.19 36.46 291.1 33.29 294.01 33.83 117.07"/><polygon class="cls-4" points="8.35 304.66 3.54 306.8 4.88 104 9.66 106.9 8.35 304.66"/><polygon class="cls-15" points="217.77 6.49 262.27 27.7 261.88 190.96 330.8 190.82 331.04 112.97 358.96 130.9 358.49 284.62 330.47 297.82 330.72 217.18 261.8 217.32 261.45 331.54 233.43 347.67 234.38 37.3 216.71 28.83 33.83 117.07 33.29 294.01 143.49 346.88 142.64 368.65 8.35 304.66 9.66 106.9 217.77 6.49"/><polygon class="cls-16" points="9.66 106.9 4.88 104 216.96 1.68 217.77 6.49 9.66 106.9"/></g><g class="cls-1"><polygon class="cls-17" points="394.15 290.53 390.6 288.85 391.13 116.94 394.68 118.62 394.15 290.53"/><polygon class="cls-17" points="264.96 352.86 261.42 351.18 390.6 288.85 394.15 290.53 264.96 352.86"/><polygon class="cls-17" points="264.96 354.27 261.42 352.59 261.42 351.18 264.96 352.86 264.96 354.27"/><polygon class="cls-17" points="262.02 354.27 258.48 352.59 261.42 352.59 264.96 354.27 262.02 354.27"/><polygon class="cls-17" points="424.97 105.19 428.15 102.28 426.82 305.07 423.67 302.94 424.97 105.19"/><polygon class="cls-17" points="215.25 376.85 211.7 375.17 258.48 352.59 262.02 354.27 215.25 376.85"/><polygon class="cls-17" points="398.93 293.42 394.15 290.53 394.68 118.62 399.47 116.48 398.93 293.42"/><polygon class="cls-17" points="269.74 358.64 264.96 354.27 264.96 352.86 269.75 355.75 269.74 358.64"/><polygon class="cls-17" points="269.75 355.75 264.96 352.86 394.15 290.53 398.93 293.42 269.75 355.75"/><polygon class="cls-17" points="264.59 358.35 262.02 354.27 264.96 354.27 269.74 358.64 264.59 358.35"/><polygon class="cls-17" points="214.73 407.4 211.19 405.73 158.74 380.73 162.28 382.4 214.73 407.4"/><polygon class="cls-17" points="423.67 302.94 426.82 305.07 214.73 407.4 215.55 403.36 423.67 302.94"/><polygon class="cls-17" points="216.05 381.67 215.25 376.85 262.02 354.27 264.59 358.35 216.05 381.67"/><polygon class="cls-17" points="394.68 118.62 391.13 116.94 277.92 62.62 281.47 64.3 394.68 118.62"/><polygon class="cls-17" points="281.47 64.3 277.92 62.62 277.86 30.66 281.4 32.34 281.47 64.3"/><polygon class="cls-17" points="194.94 371.53 198.11 368.62 215.25 376.85 216.05 381.67 194.94 371.53"/><polygon class="cls-17" points="215.55 403.36 214.73 407.4 162.28 382.4 167.08 380.26 215.55 403.36"/><polygon class="cls-17" points="162.28 382.4 158.74 380.73 159.26 161.56 162.81 163.24 162.28 382.4"/><polygon class="cls-17" points="399.47 116.48 394.68 118.62 281.47 64.3 286.25 62.15 399.47 116.48"/><polygon class="cls-17" points="286.25 62.15 281.47 64.3 281.4 32.34 286.21 39.06 286.25 62.15"/><polygon class="cls-17" points="286.21 39.06 281.4 32.34 428.15 102.28 424.97 105.19 286.21 39.06"/><polygon class="cls-17" points="163.05 83.27 159.51 81.59 195.48 67.9 199.03 69.58 163.05 83.27"/><polygon class="cls-17" points="121.95 174.58 118.41 172.9 159.51 81.59 163.05 83.27 121.95 174.58"/><polygon class="cls-17" points="91.97 297.25 88.42 295.57 52.55 276.09 56.09 277.77 91.97 297.25"/><polygon class="cls-17" points="123.49 224.68 119.95 223 88.78 179.48 92.32 181.15 123.49 224.68"/><polygon class="cls-17" points="167.08 380.26 162.28 382.4 162.81 163.24 167.63 149.98 167.08 380.26"/><polygon class="cls-17" points="195.84 75.75 199.03 69.58 198.11 368.62 194.94 371.53 195.84 75.75"/><polygon class="cls-17" points="167.63 149.98 162.81 163.24 123.49 224.68 124.13 217.96 167.63 149.98"/><polygon class="cls-17" points="166.81 86.8 163.05 83.27 199.03 69.58 195.84 75.75 166.81 86.8"/><polygon class="cls-17" points="122.85 184.46 121.95 174.58 163.05 83.27 166.81 86.8 122.85 184.46"/><polygon class="cls-17" points="56.55 129.1 53 127.42 88.99 110.76 92.53 112.44 56.55 129.1"/><polygon class="cls-17" points="56.09 277.77 52.55 276.09 53 127.42 56.55 129.1 56.09 277.77"/><polygon class="cls-17" points="88.82 290.93 91.97 297.25 56.09 277.77 60.89 275.77 88.82 290.93"/><polygon class="cls-17" points="124.13 217.96 123.49 224.68 92.32 181.15 89.19 169.18 124.13 217.96"/><polygon class="cls-17" points="89.19 169.18 92.32 181.15 91.97 297.25 88.82 290.93 89.19 169.18"/><polygon class="cls-17" points="91.43 118.1 92.53 112.44 121.95 174.58 122.85 184.46 91.43 118.1"/><polygon class="cls-17" points="60.89 275.77 56.09 277.77 56.55 129.1 61.33 132.04 60.89 275.77"/><polygon class="cls-17" points="286.21 39.06 424.97 105.19 423.67 302.94 215.55 403.36 167.08 380.26 167.63 149.98 124.13 217.96 89.19 169.18 88.82 290.93 60.89 275.77 61.33 132.04 91.43 118.1 122.85 184.46 166.81 86.8 195.84 75.75 194.94 371.53 216.05 381.67 264.59 358.35 269.74 358.64 269.75 355.75 398.93 293.42 399.47 116.48 286.25 62.15 286.21 39.06"/><polygon class="cls-17" points="61.33 132.04 56.55 129.1 92.53 112.44 91.43 118.1 61.33 132.04"/></g><line class="cls-17" x1="248.9" y1="357.03" x2="272.41" y2="345.77"/><path class="cls-17" d="M331,464.53c3.22,0,3.22-5,0-5s-3.22,5,0,5Z" transform="translate(-69.42 -107.59)"/><path class="cls-17" d="M331.2,464c3.22,0,3.22-5,0-5s-3.22,5,0,5Z" transform="translate(-69.42 -107.59)"/><path class="cls-17" d="M330.09,459.1a28.81,28.81,0,0,0-2.54,1.7,2.75,2.75,0,0,0-1.15,1.49,2.68,2.68,0,0,0,.13,1.63,2.4,2.4,0,0,0,1,1.2,2.52,2.52,0,0,0,1.93.25c1.15-.43,2.32-.84,3.44-1.34a10.12,10.12,0,0,0,2.73-2.06,2.51,2.51,0,0,0-1.76-4.27,8.93,8.93,0,0,0-4,1.34,18.14,18.14,0,0,0-2.67,1.63,1.8,1.8,0,0,0-.7.64,1.94,1.94,0,0,0-.45.85,2.55,2.55,0,0,0,.25,1.93,2.58,2.58,0,0,0,1.5,1.15,2.43,2.43,0,0,0,1.92-.25,14.71,14.71,0,0,1,2-1.26c.69-.38,1.38-.75,2.1-1.07l-.6.26a4,4,0,0,1,.93-.28l-.66.09a2.56,2.56,0,0,1,.39,0l-1.77-4.27a12.88,12.88,0,0,1-1.11,1l.51-.39a6.31,6.31,0,0,1-1.3.76l.59-.25c-.87.36-1.77.67-2.66,1l1.93,4.57a26.61,26.61,0,0,1,2.53-1.7,2.59,2.59,0,0,0,1.15-1.49,2.5,2.5,0,0,0-1.74-3.08,2.6,2.6,0,0,0-1.93.25Z" transform="translate(-69.42 -107.59)"/></svg>