<svg xmlns="http://www.w3.org/2000/svg" viewBox="0 0 414.01 415.94"><defs><style>.cls-1{fill:#f7a91b;}.cls-2{fill:#333;}.cls-3{fill:#fff;}.cls-4{fill:#292a29;}.cls-5{fill:#fedbb3;}.cls-6{fill:#685949;}.cls-7{fill:#685748;}.cls-8{fill:#d5b796;}.cls-9{fill:#4b4235;}.cls-10{fill:#f0516e;}.cls-11{fill:#fafaf9;}.cls-12{fill:#2f3533;}.cls-13{fill:#566153;}.cls-14{fill:#83705e;}</style></defs><title>mahmod n1</title><g id="Layer_3" data-name="Layer 3"><circle class="cls-1" cx="207.01" cy="207.01" r="207.01"/></g><g id="Layer_17" data-name="Layer 17"><path class="cls-2" d="M304.68,590.12c71-1.56,130.62-31.17,151.14-70.9-14.15-41.29-78.29-71.41-154.58-69.74-75.78,1.67-138.21,34.15-151.12,75.61C172,564.33,233.19,591.69,304.68,590.12Z" transform="translate(-92.58 -174.25)"/></g><g id="Layer_20" data-name="Layer 20"><path class="cls-3" d="M349.56,515.7v50.72a7.56,7.56,0,1,0,15.12,0V515.34a7.53,7.53,0,0,0-2-5.12Z" transform="translate(-92.58 -174.25)"/><path class="cls-3" d="M240.76,514.11l-.89-3.22a7.55,7.55,0,0,0-1.19,4.07V566.8a7.56,7.56,0,0,0,15.12,0V517.5Z" transform="translate(-92.58 -174.25)"/></g><g id="Layer_19" data-name="Layer 19"><path class="cls-4" d="M315.24,522.24s40-5,59.19-22.73c0,0,12.72-9.66,20.81-33.43,0,0,6.24.52,14.8,6.79,0,0-14.1,25.08-32.6,32.91C377.44,505.78,343.91,520.93,315.24,522.24Z" transform="translate(-92.58 -174.25)"/><path class="cls-4" d="M288.69,523s-41.76-7.23-56.88-17.6c0,0-24.72-15.91-27.12-35.44a34.29,34.29,0,0,0-5.19,2.14,36,36,0,0,0-9.7,7.23,58.78,58.78,0,0,0,7.39,11.06c10.75,12.69,24.36,17.62,31.5,19.59C228.69,509.94,250.05,516.93,288.69,523Z" transform="translate(-92.58 -174.25)"/></g><g id="Layer_18" data-name="Layer 18"><ellipse class="cls-2" cx="207.01" cy="294.66" rx="95.28" ry="45.53"/><path class="cls-5" d="M340.6,426.34H260v48.42a48.58,48.58,0,0,0,80.64,0Z" transform="translate(-92.58 -174.25)"/></g><g id="Layer_5" data-name="Layer 5"><path class="cls-5" d="M366.68,311.55l7.92,3,4.68,3.61,3.24,4.51,1.44,4.81-5.64,33.17h0l-2.87,2.28-2.65,1.53-4.32,2.41Z" transform="translate(-92.58 -174.25)"/><path class="cls-5" d="M227.39,311.55l-7.92,3-4.68,3.61-3.24,4.51-1.44,4.81q2.82,16.59,5.65,33.17h0l2.87,2.28,2.64,1.53,4.32,2.41Z" transform="translate(-92.58 -174.25)"/></g><g id="Layer_4" data-name="Layer 4"><ellipse class="cls-5" cx="205.06" cy="144.2" rx="77.04" ry="133.32"/></g><g id="Layer_7" data-name="Layer 7"><path class="cls-6" d="M281.5,300.23,240.33,293l-8.16,8.71-2.41,3.6-2.37,8.93c10.59-19.69,55.68-3.11,55.68-3.11Z" transform="translate(-92.58 -174.25)"/><path class="cls-6" d="M312.14,300.23,353.31,293l8.16,8.71,2.41,3.6,2.37,8.93c-10.59-19.69-55.68-3.11-55.68-3.11Z" transform="translate(-92.58 -174.25)"/></g><g id="Layer_8" data-name="Layer 8"><path class="cls-7" d="M255.91,320.19a22.56,22.56,0,0,1,10.47,2.38,19.81,19.81,0,0,1,7.47,6.26,12.53,12.53,0,0,0-5.42-8.86,19.08,19.08,0,0,0-11.8-3.62c-11,.51-17.06,11.44-17.47,12.21C240.25,327.29,246.35,320.43,255.91,320.19Z" transform="translate(-92.58 -174.25)"/><path class="cls-7" d="M336.81,320.19a22.56,22.56,0,0,0-10.47,2.38,19.81,19.81,0,0,0-7.47,6.26A12.52,12.52,0,0,1,324.3,320a19,19,0,0,1,11.79-3.62c11,.51,17.06,11.44,17.47,12.21C352.47,327.29,346.38,320.43,336.81,320.19Z" transform="translate(-92.58 -174.25)"/></g><g id="Layer_9" data-name="Layer 9"><path class="cls-8" d="M283,360.62a20.29,20.29,0,0,0,14.36,7.67c10,.6,16.09-6.87,16.64-7.57a32.83,32.83,0,0,1-31-.1Z" transform="translate(-92.58 -174.25)"/></g><g id="Layer_10" data-name="Layer 10"><path class="cls-9" d="M274.45,381.25a5.47,5.47,0,0,0-5.52,5.36v.06c0,13.32,13.73,24.13,30.66,24.13s30.66-10.81,30.66-24.13v-.06a5.47,5.47,0,0,0-5.52-5.36Z" transform="translate(-92.58 -174.25)"/><g id="Layer_11" data-name="Layer 11"><path class="cls-10" d="M274.84,400.91a25.19,25.19,0,0,1,14.73-4.05,24.63,24.63,0,0,1,10.27,2.82s12.06-7.74,23.06,3.06c-2.16,1.67-12.9,9.66-27.72,7.75A37.32,37.32,0,0,1,274.84,400.91Z" transform="translate(-92.58 -174.25)"/></g><g id="Layer_12" data-name="Layer 12"><path class="cls-11" d="M274.52,381.25a4.48,4.48,0,0,0,3.83,6.84h42.47a4.48,4.48,0,0,0,3.84-6.84Z" transform="translate(-92.58 -174.25)"/></g></g><g id="Layer_13" data-name="Layer 13"><path class="cls-12" d="M361.37,234.76a27,27,0,0,0-1.49-25.84,60.17,60.17,0,0,0-24.67-17S324.37,176.62,312,181.47c0,0-1.12-9.16-16.45-.95,0,0-6-5.51-17.93,4.18a21.52,21.52,0,0,0-5.75-.76c-11.81,0-19.86,9.86-21.71,12.23a6.72,6.72,0,0,1,.54-2.25,7.25,7.25,0,0,1,3.78-3.6,7.65,7.65,0,0,0-6.81,6,13.09,13.09,0,0,0-3.75,2.12,13.26,13.26,0,0,0-3.36,4.08h0l5.46-11.25a20.1,20.1,0,0,0-4.5,3.24,21.85,21.85,0,0,0-6.24,12.33l-.72,3.84a6.21,6.21,0,0,1-1.77-2.67c-1.05-3.26,1.26-6.14,1.47-6.4a20.67,20.67,0,0,0-3.55,5.1,21.43,21.43,0,0,0-1.67,13.09c.62,2.11,1.24,4.45,1,4.56s-1.7-2.56-2.4-4.32c-1.14-2.84-2.24-7.6-.57-14.73-1.88,4.59-5.23,14.8-1.11,25.05a26.62,26.62,0,0,0,2,4,14.44,14.44,0,0,1-4.39-4.44c-4-6.44-1.14-13.84-.72-14.88-.76,1.33-5,9.11-1.92,17.76a20,20,0,0,0,5.28,7.92,12.77,12.77,0,0,1-4.08-3.12c-1.77-2.06-2.13-3.92-2.4-3.84s-.26,4.7,2.4,8.64a14.36,14.36,0,0,0,3.84,3.84,130.94,130.94,0,0,0-6.83,63.11q2.82,9.13,5.63,18.25v-9.12a368.43,368.43,0,0,1-.18-37.29c.36-7.53.92-14.19,5-21.27a37.09,37.09,0,0,1,9.23-10.62c12.37-5.19,30.22-9.11,51.57-13.53,26.35-5.45,53.82-8.28,58.31,2.22,0,0,15.52-3.1,18.83,46.79h.08l3.75,35.93,1.25,4.5q1.82-9.24,3.62-18.48a121.08,121.08,0,0,0-4.8-49A118.62,118.62,0,0,0,361.37,234.76Z" transform="translate(-92.58 -174.25)"/><line class="cls-13" x1="256.08" y1="63.74" x2="268.79" y2="60.51"/></g><g id="Layer_14" data-name="Layer 14"><path class="cls-6" d="M260,433.58a79.43,79.43,0,0,0,79.55-3,47.17,47.17,0,0,1-40.82,23.77C274.51,454.31,261.08,435.22,260,433.58Z" transform="translate(-92.58 -174.25)"/><path class="cls-6" d="M308.76,445.68" transform="translate(-92.58 -174.25)"/></g><g id="Layer_15" data-name="Layer 15"><path class="cls-14" d="M288.05,415.18l11.27,8.19,11.8-8.19Z" transform="translate(-92.58 -174.25)"/><path class="cls-6" d="M399,446.64" transform="translate(-92.58 -174.25)"/></g><g id="Layer_16" data-name="Layer 16"><path class="cls-14" d="M298,369.68H268.16a4.28,4.28,0,0,0-4.28,4.28v1.63a4.28,4.28,0,0,0,4.28,4.28H298Z" transform="translate(-92.58 -174.25)"/><path class="cls-14" d="M332.32,369.68H301.15v10.19h31.17a4.28,4.28,0,0,0,4.28-4.28V374A4.28,4.28,0,0,0,332.32,369.68Z" transform="translate(-92.58 -174.25)"/><path class="cls-14" d="M336.6,374v47l-2.16-24.08s1.73-19.82-2.12-17l3.85-2.83Z" transform="translate(-92.58 -174.25)"/><path class="cls-14" d="M263.88,375.59v45.35l1.68-21.58s-1.77-19.92,1.27-19.71Z" transform="translate(-92.58 -174.25)"/></g></svg>