<svg xmlns="http://www.w3.org/2000/svg" viewBox="0 0 414.01 415.94"><defs><style>.cls-1{fill:#f7a91b;}.cls-2{fill:#333;}.cls-3{fill:#fff;}.cls-4{fill:#292a29;}.cls-5{fill:#fedbb3;}.cls-6{fill:#685949;}.cls-7{fill:#685748;}.cls-8{fill:#d5b796;}.cls-9{fill:#4b4235;}.cls-10{fill:#f0516e;}.cls-11{fill:#fafaf9;}.cls-12{fill:#2f3533;}.cls-13{fill:#83705e;}</style></defs><title>mahmod 1 svg</title><g id="Layer_3" data-name="Layer 3"><circle class="cls-1" cx="207.01" cy="207.01" r="207.01"/></g><g id="Layer_17" data-name="Layer 17"><path class="cls-2" d="M304.68,590.12c71-1.56,130.62-31.17,151.14-70.9-14.15-41.29-78.29-71.41-154.58-69.74-75.78,1.67-138.21,34.15-151.12,75.61C172,564.33,233.19,591.69,304.68,590.12Z" transform="translate(-92.58 -174.25)"/></g><g id="Layer_20" data-name="Layer 20"><path class="cls-3" d="M349.56,515.7v50.72a7.56,7.56,0,1,0,15.12,0V515.34a7.53,7.53,0,0,0-2-5.12Z" transform="translate(-92.58 -174.25)"/><path class="cls-3" d="M240.76,514.11l-.89-3.22a7.55,7.55,0,0,0-1.19,4.07V566.8a7.56,7.56,0,0,0,15.12,0V517.5Z" transform="translate(-92.58 -174.25)"/></g><g id="Layer_19" data-name="Layer 19"><path class="cls-4" d="M315.24,522.24s40-5,59.19-22.73c0,0,12.72-9.66,20.81-33.43,0,0,6.24.52,14.8,6.79,0,0-14.1,25.08-32.6,32.91C377.44,505.78,343.91,520.93,315.24,522.24Z" transform="translate(-92.58 -174.25)"/><path class="cls-4" d="M288.69,523s-41.76-7.23-56.88-17.6c0,0-24.72-15.91-27.12-35.44a86.45,86.45,0,0,0-15.6,7.71s8.4,23.15,39.6,32.31C228.69,509.94,250.05,516.93,288.69,523Z" transform="translate(-92.58 -174.25)"/></g><g id="Layer_18" data-name="Layer 18"><ellipse class="cls-2" cx="207.01" cy="294.66" rx="95.28" ry="45.53"/><path class="cls-5" d="M340.6,426.34H260v48.42a48.58,48.58,0,0,0,80.64,0Z" transform="translate(-92.58 -174.25)"/></g><g id="Layer_4" data-name="Layer 4"><ellipse class="cls-5" cx="205.06" cy="144.2" rx="77.04" ry="133.32"/></g><g id="Layer_5" data-name="Layer 5"><polygon class="cls-5" points="274.36 131.63 282.28 134.64 286.96 138.25 290.2 142.76 291.64 147.57 291.64 173.72 288.76 178.53 285.16 181.84 280.48 184.55 276.16 186.95 274.36 131.63"/></g><g id="Layer_6" data-name="Layer 6"><polygon class="cls-5" points="141.03 129.35 132.96 131.29 127.41 133.88 121.36 139.06 118.84 141.97 116.82 173.04 120.35 178.54 124.89 181.78 128.93 185.01 135.48 186.95 141.03 186.95 141.03 129.35"/></g><g id="Layer_7" data-name="Layer 7"><path class="cls-6" d="M350.74,290.08l-36.22,9.52v9.55s42.87-15.12,52.61-1.77l-3.79-6.54Z" transform="translate(-92.58 -174.25)"/><path class="cls-6" d="M367.13,307.38l1,1.77A9.41,9.41,0,0,0,367.13,307.38Z" transform="translate(-92.58 -174.25)"/><path class="cls-6" d="M283.14,300.23,242,293l-8.17,8.71-2.41,3.6L229,314.22c10.58-19.69,55.68-3.11,55.68-3.11Z" transform="translate(-92.58 -174.25)"/></g><g id="Layer_8" data-name="Layer 8"><path class="cls-7" d="M255.91,320.19c7.64,0,14.3,3.47,17.94,8.64-.63-7-8.09-12.48-17.22-12.48-8.1,0-14.87,4.33-16.75,10.18A22.5,22.5,0,0,1,255.91,320.19Z" transform="translate(-92.58 -174.25)"/><path class="cls-7" d="M337.45,321.33c7.64,0,14.3,3.47,17.94,8.64-.63-7-8.09-12.48-17.22-12.48-8.09,0-14.87,4.33-16.74,10.18A22.52,22.52,0,0,1,337.45,321.33Z" transform="translate(-92.58 -174.25)"/></g><g id="Layer_9" data-name="Layer 9"><path class="cls-8" d="M285,357.84c.91,5.89,7.38,10.45,15.24,10.45s14.32-4.56,15.24-10.45Z" transform="translate(-92.58 -174.25)"/></g><g id="Layer_10" data-name="Layer 10"><path class="cls-9" d="M274.45,381.25a5.47,5.47,0,0,0-5.52,5.36v.06c0,13.32,13.73,24.13,30.66,24.13s30.66-10.81,30.66-24.13v-.06a5.47,5.47,0,0,0-5.52-5.36Z" transform="translate(-92.58 -174.25)"/><g id="Layer_11" data-name="Layer 11"><path class="cls-10" d="M276.28,401.7a20.6,20.6,0,0,1,23.56-2s12.06-7.74,23.06,3.06C322.9,402.74,300.08,421.55,276.28,401.7Z" transform="translate(-92.58 -174.25)"/></g><g id="Layer_12" data-name="Layer 12"><path class="cls-11" d="M274.52,381.25a4.48,4.48,0,0,0,3.83,6.84h42.47a4.48,4.48,0,0,0,3.84-6.84Z" transform="translate(-92.58 -174.25)"/></g></g><g id="Layer_13" data-name="Layer 13"><path class="cls-12" d="M361.37,234.76a27,27,0,0,0-1.49-25.84,60.17,60.17,0,0,0-24.67-17S324.37,176.62,312,181.47c0,0-1.12-9.16-16.45-.95,0,0-6-5.51-17.93,4.18,0,0-6.73-5.25-25.79,9.69,0,0-4.49-3.64,3.36-7.68,0,0-7.85,1.62-6.73,7.68,0,0-6.26,3.38-7.36,5.85a21.29,21.29,0,0,1,4.12-9.49,54.39,54.39,0,0,0-9.09,14.94l-1.87,2.42s-2.24.41,0-6.46c0,0-7.47,8.48-6,15.35,0,0-2.24.8-2.24-11.31,0,0-7.1,19,1.87,28.67,0,0-1.87,10.49-10.84-11.71,0,0,1.87,16.15,6.73,17.36,0,0-4.11,2.83-10.09-6.06,0,0,1.49,6.06,11.58,13.33,0,0-10.09,37.55-4.48,59.75l5.23,18.17v-9.69s-8.22-69.44,12.71-66.21c0,0,100.91-32.3,109.88-11.31,0,0,15.52-3.1,18.83,46.79h.08l3.75,35.93,1.25,4.5,3-21S376.32,246.87,361.37,234.76Z" transform="translate(-92.58 -174.25)"/></g><g id="Layer_14" data-name="Layer 14"><path class="cls-6" d="M297.41,436c-33.53,0-61.68-25.94-69.54-61,7.86,45.41,36,79,69.54,79s61.68-33.61,69.53-79C359.09,410.1,330.93,436,297.41,436Z" transform="translate(-92.58 -174.25)"/></g><g id="Layer_15" data-name="Layer 15"><path class="cls-13" d="M288.05,415.18l11.27,8.19,11.8-8.19Z" transform="translate(-92.58 -174.25)"/><path class="cls-6" d="M399,446.64" transform="translate(-92.58 -174.25)"/></g><g id="Layer_16" data-name="Layer 16"><path class="cls-13" d="M298,369.68H268.16a4.28,4.28,0,0,0-4.28,4.28v1.63a4.28,4.28,0,0,0,4.28,4.28H298Z" transform="translate(-92.58 -174.25)"/><path class="cls-13" d="M332.32,369.68H301.15v10.19h31.17a4.28,4.28,0,0,0,4.28-4.28V374A4.28,4.28,0,0,0,332.32,369.68Z" transform="translate(-92.58 -174.25)"/><path class="cls-13" d="M336.6,374v47l-2.16-24.08s1.73-19.82-2.12-17l3.85-2.83Z" transform="translate(-92.58 -174.25)"/><path class="cls-13" d="M263.88,375.59v45.35l1.68-21.58s-1.77-19.92,1.27-19.71Z" transform="translate(-92.58 -174.25)"/></g></svg>